<svg width="128" height="128" viewBox="0 0 128 128" fill="none" xmlns="http://www.w3.org/2000/svg">
<path d="M47.6168 98.12C47.6168 98.12 42.8498 100.894 51.0138 101.83C60.9058 102.96 65.9608 102.798 76.8588 100.738C76.8588 100.738 79.7298 102.533 83.7318 104.089C59.2928 114.559 28.4238 103.482 47.6168 98.12ZM44.6288 84.455C44.6288 84.455 39.2808 88.414 47.4518 89.26C58.0188 90.351 66.3618 90.44 80.8058 87.66C80.8058 87.66 82.7988 89.685 85.9378 90.791C56.3958 99.431 23.4918 91.471 44.6288 84.455Z" fill="#0074BD"/>
<path d="M69.802 61.271C75.827 68.206 68.222 74.441 68.222 74.441C68.222 74.441 83.511 66.55 76.491 56.664C69.932 47.449 64.904 42.872 92.126 27.084C92.126 27.085 49.395 37.754 69.802 61.271Z" fill="#EA2D2E"/>
<path d="M102.123 108.229C102.123 108.229 105.652 111.139 98.2349 113.388C84.1329 117.66 39.5289 118.948 27.1409 113.559C22.6899 111.621 31.0399 108.934 33.6669 108.367C36.4059 107.774 37.9699 107.882 37.9699 107.882C33.0169 104.395 5.95692 114.732 24.2269 117.697C74.0479 125.773 115.044 114.06 102.123 108.229ZM49.9119 70.294C49.9119 70.294 27.2259 75.683 41.8789 77.642C48.0669 78.47 60.3969 78.28 71.8899 77.316C81.2799 76.527 90.7029 74.842 90.7029 74.842C90.7029 74.842 87.3949 76.261 84.9989 77.895C61.9569 83.956 17.4549 81.133 30.2679 74.937C41.0999 69.698 49.9119 70.294 49.9119 70.294ZM90.6089 93.041C114.03 80.874 103.2 69.181 95.6409 70.756C93.7929 71.141 92.9639 71.476 92.9639 71.476C92.9639 71.476 93.6519 70.397 94.9639 69.933C109.917 64.678 121.415 85.436 90.1409 93.658C90.1409 93.656 90.4999 93.331 90.6089 93.041Z" fill="#0074BD"/>
<path d="M76.4912 1.587C76.4912 1.587 89.4592 14.563 64.1882 34.51C43.9222 50.516 59.5672 59.64 64.1812 70.069C52.3502 59.396 43.6722 49.999 49.4932 41.254C58.0412 28.42 81.7222 22.195 76.4912 1.587Z" fill="#EA2D2E"/>
<path d="M52.2139 126.021C74.6899 127.458 109.214 125.221 110.031 114.585C110.031 114.585 108.46 118.617 91.4539 121.816C72.2679 125.428 48.5999 125.007 34.5669 122.69C34.5669 122.691 37.4419 125.071 52.2139 126.021Z" fill="#0074BD"/>
</svg>
