<svg width="128" height="128" viewBox="0 0 128 128" fill="none" xmlns="http://www.w3.org/2000/svg">
<g clip-path="url(#clip0_91_911)">
<path d="M10 0H118C123.523 0 128 4.477 128 10V118C128 123.523 123.523 128 118 128H10C4.477 128 0 123.523 0 118V10C0 4.477 4.477 0 10 0Z" fill="#3178C6"/>
<path d="M75.259 100.238V114.048C77.505 115.199 80.1615 116.062 83.228 116.637C86.2945 117.213 89.5265 117.5 92.9245 117.5C96.2355 117.5 99.3815 117.183 102.362 116.55C105.342 115.917 107.955 114.874 110.201 113.422C112.447 111.969 114.225 110.07 115.535 107.725C116.845 105.38 117.5 102.482 117.5 99.0295C117.5 96.5265 117.125 94.3325 116.377 92.448C115.637 90.5763 114.536 88.8681 113.137 87.4205C111.727 85.953 110.035 84.637 108.063 83.4715C106.09 82.3065 103.866 81.206 101.39 80.1705C99.5755 79.422 97.949 78.696 96.509 77.991C95.0695 77.286 93.8455 76.567 92.838 75.833C91.83 75.0995 91.0525 74.3225 90.5055 73.5025C89.9585 72.6825 89.685 71.755 89.685 70.719C89.685 69.7695 89.9295 68.914 90.419 68.1515C90.9085 67.389 91.6 66.7345 92.4925 66.188C93.385 65.641 94.479 65.217 95.775 64.9145C97.0705 64.6125 98.5105 64.4615 100.094 64.4615C101.246 64.4615 102.463 64.548 103.743 64.7205C105.025 64.893 106.313 65.159 107.609 65.519C108.901 65.8771 110.165 66.3316 111.388 66.8785C112.575 67.4044 113.71 68.04 114.779 68.777V55.8735C112.677 55.068 110.381 54.471 107.89 54.0825C105.399 53.694 102.541 53.5 99.3165 53.5C96.034 53.5 92.9245 53.8525 89.9875 54.5575C87.0505 55.262 84.466 56.3625 82.2345 57.8585C80.003 59.355 78.2395 61.261 76.9435 63.577C75.648 65.893 75 68.662 75 71.8845C75 75.9985 76.1875 79.5085 78.5635 82.4145C80.939 85.32 84.545 87.78 89.3825 89.794C91.1683 90.5213 92.9395 91.2839 94.695 92.0815C96.3365 92.8295 97.7545 93.606 98.9495 94.4115C100.145 95.217 101.088 96.0945 101.779 97.044C102.47 97.9935 102.815 99.0725 102.815 100.281C102.821 101.151 102.597 102.007 102.167 102.762C101.735 103.524 101.08 104.186 100.202 104.747C99.324 105.308 98.2295 105.747 96.9195 106.063C95.6095 106.38 94.076 106.538 92.3195 106.538C89.325 106.538 86.3595 106.013 83.4225 104.963C80.485 103.913 77.764 102.338 75.259 100.238ZM52.241 65.871H70V54.5H20.5V65.871H38.1725V116.5H52.241V65.871Z" fill="white"/>
</g>
<defs>
<clipPath id="clip0_91_911">
<rect width="128" height="128" fill="white"/>
</clipPath>
</defs>
</svg>
