<svg width="512" height="512" viewBox="0 0 512 512" fill="none" xmlns="http://www.w3.org/2000/svg">
<rect width="512" height="512" fill="#050F1A"/>
<path d="M115.1 318.42L26.9 282.42V262.08L115.1 226.26V246.6L34.1 279V265.68L115.1 298.08V318.42ZM344.885 334.98H322.925L370.445 188.1H392.405L344.885 334.98ZM397.623 318.42V298.08L478.623 265.68V279L397.623 246.6V226.26L485.823 262.08V282.42L397.623 318.42Z" fill="#C4BFBF"/>
<path d="M173.53 324L128.53 197.1H157.51L189.73 295.02H181.99L217.09 197.1H237.61L269.83 295.02H262.63L296.83 197.1H324.01L278.65 324H255.79L224.65 233.82H228.79L196.57 324H173.53Z" fill="#FFA500"/>
</svg>
