<svg width="156" height="128" viewBox="0 0 156 128" fill="none" xmlns="http://www.w3.org/2000/svg">
<g clip-path="url(#clip0_91_959)">
<path d="M44.1138 46.3795C44.1138 49.0039 44.321 51.1314 44.6824 52.6917C45.1411 54.447 45.6935 56.1536 46.335 57.7974C46.5934 58.3646 46.6964 58.9319 46.6964 59.4288C46.6964 60.1374 46.3868 60.8468 45.7153 61.5563L42.4612 64.5346C41.9963 64.9604 41.5313 65.1729 41.1175 65.1729C40.6014 65.1729 40.0846 64.8182 39.5679 64.1799C38.872 63.153 38.2494 62.0369 37.7087 60.8468C37.1919 59.6421 36.6752 58.2935 36.1073 56.663C32.0781 63.1868 27.0154 66.4496 20.9204 66.4496C16.5817 66.4496 13.1204 64.7471 10.5891 61.3438C8.05836 57.9388 6.76709 53.4003 6.76709 47.7273C6.76709 41.6996 8.31673 36.8063 11.4678 33.1185C14.6183 29.4308 18.8028 27.5869 24.1233 27.5869C25.8795 27.5869 27.6875 27.7994 29.5985 28.1541C31.5101 28.5089 33.4729 29.0761 35.5393 29.7144V24.5375C35.5393 19.1473 34.7124 15.3893 33.111 13.1907C31.4583 10.9921 28.6686 9.92794 24.6912 9.92794C22.8832 9.92794 21.024 10.2124 19.1124 10.8507C17.2014 11.4882 15.3416 12.2688 13.5336 13.2618C12.7073 13.7579 12.0875 14.0415 11.7256 14.1837C11.3642 14.326 11.1058 14.3962 10.8993 14.3962C10.1759 14.3962 9.81457 13.6868 9.81457 12.1976V8.7224C9.81457 7.58797 9.91817 6.73715 10.1759 6.24104C10.4343 5.7441 10.8993 5.24799 11.6226 4.75189C13.4306 3.47524 15.6 2.41108 18.1307 1.56026C20.6627 0.638322 23.3488 0.213328 26.1897 0.213328C32.3371 0.213328 36.8312 2.12747 39.7239 5.95743C42.5648 9.78656 44.0115 15.6018 44.0115 23.4031V46.3795H44.115H44.1138ZM23.1416 57.1591C24.8466 57.1591 26.6028 56.7341 28.462 55.8825C30.3219 55.0316 31.9751 53.4714 33.3693 51.3439C34.1963 49.997 34.816 48.5078 35.1256 46.8053C35.4357 45.1037 35.6423 43.0465 35.6423 40.6354V37.6571C34.0758 37.1336 32.4891 36.7312 30.8898 36.4515C29.2793 36.1707 27.6577 36.0285 26.0343 36.0257C22.573 36.0257 20.0423 36.9477 18.3379 38.8626C16.6329 40.7776 15.8066 43.4723 15.8066 47.0178C15.8066 50.3508 16.4263 52.833 17.7176 54.5355C18.9576 56.3083 20.7656 57.1591 23.1416 57.1591ZM64.6211 64.8182C63.6912 64.8182 63.0715 64.6057 62.6583 64.1087C62.2452 63.6838 61.8832 62.6907 61.5736 61.3438L49.4349 6.52465C49.1241 5.10577 48.9693 4.18384 48.9693 3.68773C48.9693 2.5533 49.3825 1.91414 50.2094 1.91414H55.2715C56.2526 1.91414 56.9247 2.12747 57.2861 2.62358C57.6992 3.04941 58.0094 4.04245 58.319 5.38938L66.9971 52.3369L75.0554 5.38938C75.3138 3.97134 75.624 3.04941 76.0365 2.62358C76.4503 2.19858 77.1736 1.91498 78.1035 1.91498H82.2357C83.2168 1.91498 83.8889 2.12747 84.3015 2.62358C84.7152 3.04941 85.0766 4.04245 85.2832 5.38938L93.4451 52.9042L102.381 5.38938C102.691 3.97134 103.053 3.04941 103.414 2.62358C103.827 2.19858 104.499 1.91498 105.428 1.91498H110.232C111.059 1.91498 111.524 2.48219 111.524 3.68773C111.524 4.04245 111.472 4.39717 111.42 4.82216C111.369 5.24799 111.266 5.81521 111.059 6.59576L98.6096 61.4141C98.3 62.8329 97.9387 63.7549 97.5249 64.1799C97.1117 64.6057 96.4402 64.8893 95.5627 64.8893H91.1204C90.1387 64.8893 89.4671 64.6768 89.0534 64.1799C88.6402 63.6838 88.2789 62.7618 88.0723 61.3438L80.0651 15.6018L72.1103 61.2718C71.8526 62.6907 71.5424 63.6126 71.1292 64.1087C70.7161 64.6057 69.9927 64.8182 69.0634 64.8182H64.6205H64.6211ZM130.998 66.7332C128.312 66.7332 125.626 66.3073 123.044 65.4565C120.461 64.6057 118.447 63.6829 117.103 62.6204C116.277 61.9813 115.708 61.2727 115.502 60.6343C115.301 60.0084 115.195 59.3324 115.192 58.6483V55.0316C115.192 53.5425 115.605 52.833 116.38 52.833C116.696 52.8347 117.011 52.9067 117.31 53.0464C117.62 53.1886 118.085 53.4714 118.601 53.755C120.426 54.8567 122.33 55.6888 124.283 56.2372C126.307 56.8009 128.366 57.0859 130.431 57.088C133.685 57.088 136.216 56.3083 137.972 54.748C139.728 53.1878 140.658 50.9189 140.658 48.0109C140.658 46.0256 140.193 44.3942 139.263 43.0465C138.333 41.6996 136.577 40.494 134.047 39.3587L126.556 36.1679C122.785 34.5366 119.996 32.1255 118.291 28.9339C116.587 25.8133 115.709 22.3389 115.709 18.6512C115.709 15.6729 116.174 13.0485 117.103 10.7788C118.033 8.5099 119.273 6.52465 120.823 4.96439C122.372 3.33301 124.128 2.12747 126.195 1.27665C128.261 0.425825 130.43 0.071106 132.703 0.071106C133.839 0.071106 135.028 0.142217 136.164 0.354714C137.352 0.567211 138.437 0.850818 139.522 1.13443C140.555 1.48915 141.536 1.84386 142.466 2.26969C143.396 2.69469 144.119 3.12052 144.636 3.54551C145.359 4.11356 145.875 4.68078 146.185 5.31911C146.495 5.88632 146.65 6.66603 146.65 7.65908V10.9921C146.65 12.4812 146.237 13.2618 145.462 13.2618C145.049 13.2618 144.377 12.9774 143.5 12.4101C140.555 10.5663 137.249 9.64433 133.582 9.64433C130.637 9.64433 128.312 10.2827 126.711 11.6304C125.11 12.9774 124.283 15.0346 124.283 17.9417C124.283 19.9278 124.8 21.6295 125.833 22.9773C126.866 24.3242 128.777 25.6719 131.515 26.8775L138.85 30.0691C142.569 31.7005 145.255 33.9694 146.857 36.8765C148.458 39.7846 149.233 43.1176 149.233 46.8053C149.233 49.8547 148.768 52.6205 147.89 55.0316C146.96 57.4427 145.72 59.5702 144.119 61.2727C142.517 63.0454 140.606 64.3221 138.385 65.244C136.061 66.2371 133.633 66.7332 130.998 66.7332Z" fill="white"/>
<path d="M140.761 101.199C123.767 118.432 99.075 127.58 77.845 127.58C48.0911 127.58 21.2823 112.474 1.03342 87.3696C-0.568011 85.3844 0.878034 82.6897 2.78903 84.2491C24.6912 101.696 51.7071 112.262 79.6531 112.262C98.5071 112.262 119.221 106.872 138.282 95.8092C141.123 94.0357 143.551 98.3625 140.761 101.199ZM147.838 90.1354C145.669 86.3063 133.478 88.2915 127.951 89.2135C126.298 89.4979 126.039 87.5118 127.538 86.0227C137.249 76.6611 153.211 79.3566 155.07 82.4763C156.93 85.668 154.553 107.581 145.462 118.077C144.068 119.708 142.725 118.858 143.344 116.73C145.41 109.709 150.008 93.8943 147.838 90.1354Z" fill="#FF9900"/>
</g>
<defs>
<clipPath id="clip0_91_959">
<rect width="156" height="128" fill="white"/>
</clipPath>
</defs>
</svg>
