<svg width="32" height="32" viewBox="0 0 32 32" fill="none" xmlns="http://www.w3.org/2000/svg">
<path d="M16 9C17.3845 9 18.7378 9.41054 19.889 10.1797C21.0401 10.9489 21.9373 12.0421 22.4672 13.3212C22.997 14.6003 23.1356 16.0078 22.8655 17.3656C22.5954 18.7235 21.9287 19.9708 20.9497 20.9497C19.9708 21.9287 18.7235 22.5954 17.3656 22.8655C16.0078 23.1356 14.6003 22.997 13.3212 22.4672C12.0421 21.9373 10.9489 21.0401 10.1797 19.889C9.41054 18.7378 9 17.3845 9 16C9 14.1435 9.7375 12.363 11.0503 11.0503C12.363 9.7375 14.1435 9 16 9Z" fill="#FFA500"/>
<path d="M16 32C12.8355 32 9.74207 31.0616 7.11088 29.3035C4.4797 27.5454 2.42894 25.0466 1.21793 22.1229C0.0069325 19.1993 -0.309921 15.9823 0.307443 12.8786C0.924806 9.77487 2.44866 6.92394 4.6863 4.6863C6.92394 2.44866 9.77487 0.924806 12.8786 0.307443C15.9823 -0.309921 19.1993 0.0069325 22.1229 1.21793C25.0466 2.42894 27.5454 4.4797 29.3035 7.11088C31.0616 9.74207 32 12.8355 32 16C32 20.2435 30.3143 24.3131 27.3137 27.3137C24.3131 30.3143 20.2435 32 16 32ZM16 2.00001C13.2311 2.00001 10.5243 2.82109 8.22202 4.35943C5.91974 5.89777 4.12532 8.08427 3.06569 10.6424C2.00607 13.2006 1.72882 16.0155 2.26901 18.7313C2.80921 21.447 4.14258 23.9416 6.10051 25.8995C8.05845 27.8574 10.553 29.1908 13.2687 29.731C15.9845 30.2712 18.7994 29.9939 21.3576 28.9343C23.9157 27.8747 26.1022 26.0803 27.6406 23.778C29.1789 21.4757 30 18.7689 30 16C30 12.287 28.525 8.72602 25.8995 6.10051C23.274 3.475 19.713 2.00001 16 2.00001Z" fill="#FFA500"/>
</svg>
