<svg width="108" height="108" viewBox="0 0 108 108" fill="none" xmlns="http://www.w3.org/2000/svg">
<path d="M3.86679 46.48L34.6935 15.6L43.7068 24.6667C42.4268 29.2 44.5068 34.16 48.6668 36.56V66.1067C45.4668 67.92 43.3335 71.3867 43.3335 75.3333C43.3335 78.1623 44.4573 80.8754 46.4577 82.8758C48.458 84.8762 51.1711 86 54.0001 86C56.8291 86 59.5422 84.8762 61.5426 82.8758C63.543 80.8754 64.6668 78.1623 64.6668 75.3333C64.6668 71.3867 62.5335 67.92 59.3335 66.1067V40.1867L70.3735 51.3333C70.0001 52.1333 70.0001 53.04 70.0001 54C70.0001 56.829 71.1239 59.5421 73.1243 61.5425C75.1247 63.5429 77.8378 64.6667 80.6668 64.6667C83.4958 64.6667 86.2089 63.5429 88.2093 61.5425C90.2096 59.5421 91.3335 56.829 91.3335 54C91.3335 51.171 90.2096 48.4579 88.2093 46.4575C86.2089 44.4571 83.4958 43.3333 80.6668 43.3333C79.7068 43.3333 78.8001 43.3333 78.0001 43.7067L64.2935 30C64.9557 27.5298 64.6989 24.9032 63.5709 22.608C62.4429 20.3127 60.5203 18.5048 58.1601 17.52C55.8668 16.6667 53.4668 16.4533 51.3335 17.04L42.2668 8.02667L46.4801 3.86667C50.6401 -0.346668 57.3601 -0.346668 61.5201 3.86667L104.133 46.48C108.347 50.64 108.347 57.36 104.133 61.52L61.5201 104.133C57.3601 108.347 50.6401 108.347 46.4801 104.133L3.86679 61.52C-0.346546 57.36 -0.346546 50.64 3.86679 46.48Z" fill="#F24E1E"/>
</svg>
