<svg width="103" height="34" viewBox="0 0 103 34" fill="none" xmlns="http://www.w3.org/2000/svg">
<path d="M19.8 29.76L0.2 21.76V17.24L19.8 9.28V13.8L1.8 21V18.04L19.8 25.24V29.76ZM70.8634 33.44H65.9834L76.5434 0.799998H81.4234L70.8634 33.44ZM82.5828 29.76V25.24L100.583 18.04V21L82.5828 13.8V9.28L102.183 17.24V21.76L82.5828 29.76Z" fill="#C4BFBF"/>
<path d="M32.7844 31L22.7844 2.8H29.2244L36.3844 24.56H34.6644L42.4644 2.8H47.0244L54.1844 24.56H52.5844L60.1844 2.8H66.2244L56.1444 31H51.0644L44.1444 10.96H45.0644L37.9044 31H32.7844Z" fill="#FFA500"/>
</svg>
